<?xml version="1.0" encoding="UTF-8" standalone="no"?>
<!-- Created with Inkscape (http://www.inkscape.org/) -->

<svg
   width="500"
   height="500"
   viewBox="0 0 132.29167 132.29167"
   version="1.1"
   id="svg5"
   inkscape:version="1.3.2 (091e20e, 2023-11-25, custom)"
   sodipodi:docname="logo.svg"
   xml:space="preserve"
   xmlns:inkscape="http://www.inkscape.org/namespaces/inkscape"
   xmlns:sodipodi="http://sodipodi.sourceforge.net/DTD/sodipodi-0.dtd"
   xmlns="http://www.w3.org/2000/svg"
   xmlns:svg="http://www.w3.org/2000/svg"><sodipodi:namedview
     id="namedview7"
     pagecolor="#505050"
     bordercolor="#eeeeee"
     borderopacity="1"
     inkscape:showpageshadow="0"
     inkscape:pageopacity="0"
     inkscape:pagecheckerboard="0"
     inkscape:deskcolor="#505050"
     inkscape:document-units="mm"
     showgrid="false"
     inkscape:zoom="1.4734708"
     inkscape:cx="294.20332"
     inkscape:cy="231.08704"
     inkscape:window-width="1920"
     inkscape:window-height="1017"
     inkscape:window-x="-8"
     inkscape:window-y="-8"
     inkscape:window-maximized="1"
     inkscape:current-layer="layer1" /><defs
     id="defs2"><inkscape:path-effect
       effect="fillet_chamfer"
       id="path-effect1"
       is_visible="true"
       lpeversion="1"
       nodesatellites_param="F,0,0,1,0,0,0,1 @ F,0,0,1,0,0,0,1 @ F,0,0,1,0,0,0,1 @ F,0,0,1,0,0,0,1 @ F,0,0,1,0,0,0,1 @ F,0,0,1,0,0,0,1 @ F,0,0,1,0,0,0,1 @ F,0,0,1,0,0,0,1 @ F,0,0,1,0,0,0,1 @ F,0,0,1,0,0,0,1 @ F,0,0,1,0,5.2959069,0,1 @ F,0,0,1,0,0,0,1 @ F,0,0,1,0,0,0,1 @ F,0,0,1,0,0,0,1 @ F,0,0,1,0,0,0,1 @ F,0,0,1,0,6.1893704,0,1 @ F,0,0,1,0,0,0,1 @ F,0,0,1,0,0,0,1 @ F,0,0,1,0,0,0,1 @ F,0,0,1,0,0,0,1 @ F,0,0,1,0,0,0,1 @ F,0,0,1,0,0,0,1 @ F,0,0,1,0,6.464329,0,1 @ F,0,0,1,0,5.9635959,0,1 @ F,0,0,1,0,5.7809624,0,1 @ F,0,0,1,0,6.1336331,0,1 @ F,0,0,1,0,5.9256349,0,1 @ F,0,0,1,0,6.0920037,0,1 @ F,0,0,1,0,6.464329,0,1 @ F,0,0,1,0,7.3878586,0,1 @ F,0,0,1,0,5.8557996,0,1 @ F,0,0,1,0,0,0,1 @ F,0,0,1,0,0,0,1 @ F,0,0,1,0,0,0,1 @ F,0,0,1,0,0,0,1 @ F,0,0,1,0,0,0,1 @ F,0,0,1,0,0,0,1 @ F,0,0,1,0,0,0,1 @ F,0,0,1,0,0,0,1 @ F,0,0,1,0,0,0,1 @ F,0,0,1,0,0,0,1 @ F,0,0,1,0,0,0,1 @ F,0,0,1,0,0,0,1 @ F,0,0,1,0,0,0,1 @ F,0,0,1,0,0,0,1 @ F,0,0,1,0,0,0,1 @ F,0,0,1,0,0,0,1 @ F,0,0,1,0,0,0,1 @ F,0,0,1,0,0,0,1 @ F,0,0,1,0,0,0,1 @ F,0,0,1,0,0,0,1 @ F,0,0,1,0,0,0,1 @ F,0,0,1,0,0,0,1 @ F,0,0,1,0,0,0,1 @ F,0,0,1,0,0,0,1 @ F,0,0,1,0,0,0,1 @ F,0,0,1,0,0,0,1 @ F,0,0,1,0,0,0,1 @ F,0,0,1,0,0,0,1 @ F,0,0,1,0,0,0,1 @ F,0,0,1,0,0,0,1 @ F,0,0,1,0,0,0,1 @ F,0,0,1,0,0,0,1 @ F,0,0,1,0,0,0,1 @ F,0,0,1,0,0,0,1 @ F,0,0,1,0,0,0,1 @ F,0,0,1,0,0,0,1 @ F,0,0,1,0,0,0,1 @ F,0,0,1,0,0,0,1 @ F,0,0,1,0,0,0,1 @ F,0,0,1,0,0,0,1 @ F,0,0,1,0,0,0,1 @ F,0,0,1,0,0,0,1 @ F,0,0,1,0,0,0,1 @ F,0,0,1,0,0,0,1 @ F,0,0,1,0,0,0,1 @ F,0,0,1,0,0,0,1 @ F,0,0,1,0,0,0,1 @ F,0,0,1,0,0,0,1 @ F,0,0,1,0,0,0,1 @ F,0,0,1,0,0,0,1 @ F,0,0,1,0,0,0,1"
       radius="0"
       unit="px"
       method="auto"
       mode="F"
       chamfer_steps="1"
       flexible="false"
       use_knot_distance="true"
       apply_no_radius="true"
       apply_with_radius="true"
       only_selected="false"
       hide_knots="false" /></defs><g
     inkscape:label="Calque 1"
     inkscape:groupmode="layer"
     id="layer1"><path
       id="path15"
       style="fill:#ffffff;stroke-width:23.7277;stroke-linecap:round;stroke-linejoin:round;stroke-opacity:0;paint-order:stroke fill markers"
       d="M 66.145833,0 C 63.241627,0.01624554 60.341643,0.22374482 57.464709,0.62115072 56.935544,0.69294347 56.408641,0.77392128 55.882377,0.85834554 53.499119,1.2415722 51.138626,1.7549704 48.811491,2.3962362 47.930552,2.63876 47.05498,2.8951362 46.186328,3.1734497 44.090355,3.838216 42.028834,4.6070825 40.009444,5.4771851 39.023474,5.9054214 38.05179,6.3643222 37.088175,6.8398926 35.527018,7.614074 33.997063,8.4496448 32.501892,9.3446493 c -1.536541,0.9157187 -3.034495,1.8962247 -4.494816,2.9357377 -0.816984,0.583149 -1.620589,1.184818 -2.410189,1.804541 -3.158627,2.472642 -6.113618,5.232354 -8.808963,8.271895 -1.940017,2.187758 -0.976859,4.10151 1.94799,4.10151 h 56.641397 c 7.65233,0 13.518024,1.894854 17.596859,5.684925 4.114931,3.790067 6.172233,8.482832 6.172233,14.077693 0,4.692468 -1.461496,8.71728 -4.385262,12.074199 -0.834518,0.958151 -1.834505,1.830294 -2.999911,2.616425 -2.825894,1.90622 -2.798724,3.240046 0.292933,4.68479 2.820151,1.317868 5.05799,3.016999 6.713452,5.097511 2.707195,3.320823 4.060735,7.508083 4.060735,12.561507 0,4.114931 -0.9565,7.814854 -2.869593,11.099581 -1.913085,3.284727 -4.529861,5.883336 -7.850684,7.796426 -2.057466,1.19117 -5.1621,2.05788 -9.313127,2.59932 -5.522669,0.72192 -9.186267,1.08262 -10.99106,1.08262 H 39.293333 A 6.464329,6.464329 45 0 1 32.829004,99.369001 V 95.811859 A 5.9635959,5.9635959 135 0 1 38.7926,89.848263 h 19.16105 a 7.7782853,7.7782853 143.3796 0 0 7.447903,-5.535416 l 1.856092,-6.163532 a 4.5586271,4.5586271 53.379601 0 0 -4.365,-5.873107 H 38.754639 a 5.9256349,5.9256349 45 0 1 -5.925635,-5.925635 v -1.675582 a 6.0920037,6.0920037 135 0 1 6.092004,-6.092004 h 26.815941 a 8.586171,8.586171 143.02476 0 0 8.251509,-6.21237 l 1.461981,-5.081953 a 5.5621474,5.5621474 53.024757 0 0 -5.345353,-7.099903 l -58.839281,0 c -3.2340685,0 -6.9213104,2.402238 -7.9344558,5.472402 C 1.1537588,52.25998 0.02570058,59.172688 0,66.145833 0.00257305,92.071171 15.150333,115.60495 38.746989,126.34371 h 0.253214 c 0.616205,0.28006 1.245524,0.53087 1.870171,0.7922 1.680502,0.70715 3.389522,1.34453 5.122684,1.91048 0.887874,0.28853 1.77919,0.56785 2.67994,0.81907 2.415662,0.67119 4.867531,1.20449 7.343738,1.59732 0.516823,0.0824 1.037901,0.14583 1.557528,0.216 2.840884,0.38988 5.704115,0.5946 8.571569,0.61289 3.11948,-0.002 6.234904,-0.22486 9.322945,-0.66663 0.04854,-0.007 0.09774,-0.0117 0.146245,-0.0186 3.094195,-0.44657 6.152839,-1.11194 9.152929,-1.9911 0.0077,-0.002 0.01552,-0.004 0.02326,-0.007 3.004319,-0.88348 5.942107,-1.97919 8.791195,-3.27887 0.02531,-0.0116 0.05067,-0.023 0.07596,-0.0346 2.805141,-1.28598 5.516852,-2.76668 8.115263,-4.43125 0.0838,-0.0537 0.16763,-0.10718 0.25115,-0.16123 2.53277,-1.63846 4.9505,-3.44826 7.23625,-5.41672 0.12645,-0.10884 0.25265,-0.21786 0.37827,-0.32763 2.24637,-1.96148 4.35752,-4.07263 6.319,-6.319 0.10977,-0.12562 0.21879,-0.25182 0.32763,-0.37827 1.96846,-2.28575 3.77826,-4.70348 5.41672,-7.23625 0.054,-0.0835 0.10755,-0.16737 0.16123,-0.25115 1.66457,-2.598412 3.14527,-5.310123 4.43125,-8.115264 0.0116,-0.02529 0.0231,-0.05066 0.0346,-0.07596 1.29968,-2.849088 2.39539,-5.786876 3.27887,-8.791195 0.002,-0.0077 0.004,-0.01552 0.007,-0.02326 0.87916,-3.00009 1.54453,-6.058734 1.9911,-9.152929 0.007,-0.04851 0.0118,-0.0977 0.0186,-0.146245 0.44177,-3.088041 0.66454,-6.203465 0.66663,-9.322945 0,-1.107285 -0.0299,-2.207663 -0.0837,-3.301607 -0.043,-0.765043 -0.0994,-1.52928 -0.16898,-2.292366 -0.026,-0.309948 -0.0406,-0.623009 -0.0708,-0.931727 -0.10505,-1.062895 -0.23583,-2.123089 -0.39222,-3.17965 -1.58699,-10.687001 -5.76765,-20.822578 -12.17652,-29.520679 -0.0474,-0.0642 -0.0909,-0.131316 -0.13849,-0.195337 -0.57331,-0.768067 -1.16325,-1.523583 -1.7694,-2.266012 -0.0783,-0.09631 -0.15115,-0.197148 -0.22996,-0.293005 -0.54189,-0.653466 -1.09631,-1.29644 -1.66295,-1.928564 -0.15695,-0.176637 -0.30525,-0.360949 -0.46406,-0.535885 -0.71984,-0.793673 -1.45886,-1.569737 -2.2164,-2.327507 -0.75777,-0.757543 -1.53383,-1.496562 -2.3275,-2.216402 -0.17494,-0.158806 -0.35925,-0.307104 -0.53589,-0.464054 -0.63212,-0.56664 -1.2751,-1.121059 -1.92856,-1.662948 -0.0959,-0.07882 -0.1967,-0.151672 -0.29301,-0.22996 -0.74243,-0.606148 -1.49794,-1.196087 -2.26601,-1.769401 -0.064,-0.04759 -0.13114,-0.09112 -0.19534,-0.138493 C 96.673909,6.4834489 86.53852,2.3027893 75.851701,0.71571859 74.794968,0.55931679 73.734601,0.42853706 72.671533,0.32349447 72.362816,0.29325438 72.049754,0.27867831 71.739807,0.25269775 70.976721,0.18309697 70.212484,0.12676115 69.447441,0.08371582 68.353497,0.02993204 67.253118,-1.6740061e-8 66.145833,0 Z"
       sodipodi:nodetypes="cccccccccccscssccssccsccccccccccccccccccccscscscccccscscscccccccccccccccccccccccccc"
       inkscape:original-d="M 66.145833,0 C 63.241627,0.01624554 60.341643,0.22374482 57.464709,0.62115072 56.935544,0.69294347 56.408641,0.77392128 55.882377,0.85834554 53.499119,1.2415722 51.138626,1.7549704 48.811491,2.3962362 47.930552,2.63876 47.05498,2.8951362 46.186328,3.1734497 44.090355,3.838216 42.028834,4.6070825 40.009444,5.4771851 39.023474,5.9054214 38.05179,6.3643222 37.088175,6.8398926 35.527018,7.614074 33.997063,8.4496448 32.501892,9.3446493 c -1.536541,0.9157187 -3.034495,1.8962247 -4.494816,2.9357377 -0.816984,0.583149 -1.620589,1.184818 -2.410189,1.804541 -4.525137,3.542376 -8.632328,7.67394 -12.15688,12.373405 h 61.937304 c 7.65233,0 13.518024,1.894854 17.596859,5.684925 4.114931,3.790067 6.172233,8.482832 6.172233,14.077693 0,4.692468 -1.461496,8.71728 -4.385262,12.074199 -1.949178,2.237945 -4.801062,4.006683 -8.555033,5.306136 5.703149,1.371641 9.890409,3.735671 12.561507,7.09259 2.707195,3.320823 4.060735,7.508083 4.060735,12.561507 0,4.114931 -0.9565,7.814854 -2.869593,11.099581 -1.913085,3.284727 -4.529861,5.883336 -7.850684,7.796426 -2.057466,1.19117 -5.1621,2.05788 -9.313127,2.59932 -5.522669,0.72192 -9.186267,1.08262 -10.99106,1.08262 H 32.829004 V 89.848263 H 63.734612 L 69.026278,72.276208 H 32.829004 V 58.582987 H 72.201278 L 77.492945,40.188761 H 5.4100057 C 1.873211,48.387292 0.0329085,57.217018 0,66.145833 0.00257305,92.071171 15.150333,115.60495 38.746989,126.34371 h 0.253214 c 0.616205,0.28006 1.245524,0.53087 1.870171,0.7922 1.680502,0.70715 3.389522,1.34453 5.122684,1.91048 0.887874,0.28853 1.77919,0.56785 2.67994,0.81907 2.415662,0.67119 4.867531,1.20449 7.343738,1.59732 0.516823,0.0824 1.037901,0.14583 1.557528,0.216 2.840884,0.38988 5.704115,0.5946 8.571569,0.61289 3.11948,-0.002 6.234904,-0.22486 9.322945,-0.66663 0.04854,-0.007 0.09774,-0.0117 0.146245,-0.0186 3.094195,-0.44657 6.152839,-1.11194 9.152929,-1.9911 0.0077,-0.002 0.01552,-0.004 0.02326,-0.007 3.004319,-0.88348 5.942107,-1.97919 8.791195,-3.27887 0.02531,-0.0116 0.05067,-0.023 0.07596,-0.0346 2.805141,-1.28598 5.516852,-2.76668 8.115263,-4.43125 0.0838,-0.0537 0.16763,-0.10718 0.25115,-0.16123 2.53277,-1.63846 4.9505,-3.44826 7.23625,-5.41672 0.12645,-0.10884 0.25265,-0.21786 0.37827,-0.32763 2.24637,-1.96148 4.35752,-4.07263 6.319,-6.319 0.10977,-0.12562 0.21879,-0.25182 0.32763,-0.37827 1.96846,-2.28575 3.77826,-4.70348 5.41672,-7.23625 0.054,-0.0835 0.10755,-0.16737 0.16123,-0.25115 1.66457,-2.598412 3.14527,-5.310123 4.43125,-8.115264 0.0116,-0.02529 0.0231,-0.05066 0.0346,-0.07596 1.29968,-2.849088 2.39539,-5.786876 3.27887,-8.791195 0.002,-0.0077 0.004,-0.01552 0.007,-0.02326 0.87916,-3.00009 1.54453,-6.058734 1.9911,-9.152929 0.007,-0.04851 0.0118,-0.0977 0.0186,-0.146245 0.44177,-3.088041 0.66454,-6.203465 0.66663,-9.322945 0,-1.107285 -0.0299,-2.207663 -0.0837,-3.301607 -0.043,-0.765043 -0.0994,-1.52928 -0.16898,-2.292366 -0.026,-0.309948 -0.0406,-0.623009 -0.0708,-0.931727 -0.10505,-1.062895 -0.23583,-2.123089 -0.39222,-3.17965 -1.58699,-10.687001 -5.76765,-20.822578 -12.17652,-29.520679 -0.0474,-0.0642 -0.0909,-0.131316 -0.13849,-0.195337 -0.57331,-0.768067 -1.16325,-1.523583 -1.7694,-2.266012 -0.0783,-0.09631 -0.15115,-0.197148 -0.22996,-0.293005 -0.54189,-0.653466 -1.09631,-1.29644 -1.66295,-1.928564 -0.15695,-0.176637 -0.30525,-0.360949 -0.46406,-0.535885 -0.71984,-0.793673 -1.45886,-1.569737 -2.2164,-2.327507 -0.75777,-0.757543 -1.53383,-1.496562 -2.3275,-2.216402 -0.17494,-0.158806 -0.35925,-0.307104 -0.53589,-0.464054 -0.63212,-0.56664 -1.2751,-1.121059 -1.92856,-1.662948 -0.0959,-0.07882 -0.1967,-0.151672 -0.29301,-0.22996 -0.74243,-0.606148 -1.49794,-1.196087 -2.26601,-1.769401 -0.064,-0.04759 -0.13114,-0.09112 -0.19534,-0.138493 C 96.673909,6.4834489 86.53852,2.3027893 75.851701,0.71571859 74.794968,0.55931679 73.734601,0.42853706 72.671533,0.32349447 72.362816,0.29325438 72.049754,0.27867831 71.739807,0.25269775 70.976721,0.18309697 70.212484,0.12676115 69.447441,0.08371582 68.353497,0.02993204 67.253118,-1.6740061e-8 66.145833,0 Z"
       inkscape:path-effect="#path-effect1" /><g
       id="g16" /><g
       id="g1" /></g></svg>
