<?xml version="1.0" encoding="UTF-8" standalone="no"?>
<!-- Created with Inkscape (http://www.inkscape.org/) -->

<svg
   width="500"
   height="500"
   viewBox="0 0 132.29167 132.29167"
   version="1.1"
   id="svg5"
   inkscape:version="1.2.2 (732a01da63, 2022-12-09)"
   sodipodi:docname="logo.svg"
   xml:space="preserve"
   xmlns:inkscape="http://www.inkscape.org/namespaces/inkscape"
   xmlns:sodipodi="http://sodipodi.sourceforge.net/DTD/sodipodi-0.dtd"
   xmlns="http://www.w3.org/2000/svg"
   xmlns:svg="http://www.w3.org/2000/svg"><sodipodi:namedview
     id="namedview7"
     pagecolor="#505050"
     bordercolor="#eeeeee"
     borderopacity="1"
     inkscape:showpageshadow="0"
     inkscape:pageopacity="0"
     inkscape:pagecheckerboard="0"
     inkscape:deskcolor="#505050"
     inkscape:document-units="mm"
     showgrid="false"
     inkscape:zoom="0.2604753"
     inkscape:cx="1253.4778"
     inkscape:cy="618.10083"
     inkscape:window-width="1920"
     inkscape:window-height="1009"
     inkscape:window-x="-8"
     inkscape:window-y="-8"
     inkscape:window-maximized="1"
     inkscape:current-layer="text300" /><defs
     id="defs2" /><g
     inkscape:label="Calque 1"
     inkscape:groupmode="layer"
     id="layer1"><g
       aria-label="BENTO-ENVIRO"
       id="text300"
       style="font-weight:bold;font-size:176.389px;font-family:'Reem Kufi';-inkscape-font-specification:'Reem Kufi Bold';writing-mode:vertical-lr;fill:#f2f2f2;stroke-width:0.264583;stroke-linecap:square;stroke-linejoin:bevel;paint-order:fill markers stroke;stop-color:#000000"><path
         id="path408"
         style="font-family:Rubik;-inkscape-font-specification:'Rubik Bold';writing-mode:lr-tb;fill:#4b5563;fill-opacity:1"
         d="m 544.14508,1.7352946 c -11.17128,0 -20.81407,2.1166722 -28.92795,6.35 -8.11387,4.2333284 -14.40475,9.9955524 -18.87327,17.2862834 -4.34048,7.155919 -6.74842,15.190027 -7.22695,24.101371 h 32.78198 c 0.711,-5.769293 2.74407,-10.420082 6.19497,-13.870988 3.76297,-3.762958 9.11327,-5.644616 16.05122,-5.644616 6.93795,0 12.22963,1.881658 15.875,5.644616 3.56755,3.456066 5.69002,8.089596 6.40374,13.870988 h 32.74943 c -0.47882,-8.911346 -2.94538,-16.945451 -7.40317,-24.101371 -4.35092,-7.290731 -10.58317,-13.052955 -18.69705,-17.2862834 -8.11387,-4.2333278 -17.75667,-6.35 -28.92795,-6.35 z m 755.29752,0 c -11.1711,0 -20.814,2.1166722 -28.9279,6.35 -8.1139,4.2333284 -14.4047,9.9955524 -18.8733,17.2862834 -4.3404,7.155919 -6.7485,15.190027 -7.2269,24.101371 h 32.782 c 0.711,-5.769293 2.7441,-10.420082 6.1949,-13.870988 3.763,-3.762958 9.1134,-5.644616 16.0512,-5.644616 6.938,0 12.2298,1.881658 15.875,5.644616 3.5676,3.456066 5.69,8.089596 6.4038,13.870988 h 32.7494 c -0.4788,-8.911346 -2.9454,-16.945451 -7.4032,-24.101371 -4.3508,-7.290731 -10.5831,-13.052955 -18.697,-17.2862834 -8.1139,-4.2333278 -17.7566,-6.35 -28.928,-6.35 z M 147.26956,3.4990112 c -1.2935,0 -2.41047,0.4705439 -3.35121,1.4112834 -0.94074,0.9407396 -1.41129,2.0576998 -1.41129,3.3512166 V 49.472949 h 32.63212 V 31.721578 h 54.32795 c 1.29352,0 2.41048,-0.470544 3.35122,-1.411283 0.94074,-0.94074 1.41128,-2.0577 1.41128,-3.351217 V 8.2615112 c 0,-1.2935168 -0.47054,-2.410477 -1.41128,-3.3512166 -0.94074,-0.9407395 -2.0577,-1.4112834 -3.35122,-1.4112834 z m 113.4184,0 c -1.2935,0 -2.41099,0.4705439 -3.35173,1.4112834 -0.94075,0.9407396 -1.41077,2.0576998 -1.41077,3.3512166 V 49.472949 H 314.3312 L 286.26418,7.5561279 c -0.47037,-0.9407394 -1.35231,-1.8226862 -2.64583,-2.6458333 -1.29352,-0.9407395 -2.82239,-1.4112834 -4.58629,-1.4112834 z m 70.7316,0 c -1.2935,0 -2.41047,0.4705439 -3.35121,1.4112834 -0.94074,0.9407396 -1.41129,2.0576998 -1.41129,3.3512166 V 49.472949 h 32.63212 V 8.2615112 c 0,-1.2935168 -0.47054,-2.410477 -1.41128,-3.3512166 -0.94074,-0.9407395 -2.0577,-1.4112834 -3.35122,-1.4112834 z m 46.39045,0 c -1.2935,0 -2.41047,0.4705439 -3.35121,1.4112834 -0.94074,0.9407396 -1.41129,2.0576998 -1.41129,3.3512166 V 26.959078 c 0,1.293517 0.47055,2.410477 1.41129,3.351217 0.94074,0.940739 2.05771,1.411283 3.35121,1.411283 h 31.04462 v 17.751371 h 32.63212 V 31.721578 h 31.0441 c 1.29352,0 2.41099,-0.470544 3.35173,-1.411283 0.94074,-0.94074 1.41077,-2.0577 1.41077,-3.351217 V 8.2615112 c 0,-1.2935168 -0.47003,-2.410477 -1.41077,-3.3512166 -0.94074,-0.9407395 -2.05821,-1.4112834 -3.35173,-1.4112834 z m 331.25885,0 c -1.2935,0 -2.41047,0.4705439 -3.35121,1.4112834 -0.94074,0.9407396 -1.41129,2.0576998 -1.41129,3.3512166 V 49.472949 h 32.63212 V 31.721578 h 54.32743 c 1.29352,0 2.411,-0.470544 3.35174,-1.411283 0.94074,-0.94074 1.41076,-2.0577 1.41076,-3.351217 V 8.2615112 c 0,-1.2935168 -0.47002,-2.410477 -1.41076,-3.3512166 -0.94074,-0.9407395 -2.05822,-1.4112834 -3.35174,-1.4112834 z m 113.41789,0 c -1.29352,0 -2.41048,0.4705439 -3.35122,1.4112834 -0.94074,0.9407396 -1.41128,2.0576998 -1.41128,3.3512166 V 49.472949 H 876.1305 L 848.06348,7.5561279 c -0.47037,-0.9407394 -1.35231,-1.8226862 -2.64583,-2.6458333 -1.29351,-0.9407395 -2.82239,-1.4112834 -4.58629,-1.4112834 z m 70.73211,0 c -1.2935,0 -2.41047,0.4705439 -3.35121,1.4112834 -0.94074,0.9407396 -1.41129,2.0576998 -1.41129,3.3512166 V 49.472949 h 32.63212 V 8.2615112 c 0,-1.2935168 -0.47054,-2.410477 -1.41128,-3.3512166 -0.94075,-0.9407395 -2.05771,-1.4112834 -3.35122,-1.4112834 z m 47.97795,0 c -1.05832,0 -1.99942,0.4119197 -2.82256,1.2350668 -0.70556,0.7055546 -1.05834,1.5875015 -1.05834,2.6458333 0,0.4703698 0.1764,1.2345515 0.52917,2.2928833 l 12.99094,39.8001544 h 32.59543 L 970.30098,7.909078 C 969.9482,6.7331535 969.18402,5.7334417 968.0081,4.9102946 966.94977,3.9695551 965.42089,3.4990112 963.42181,3.4990112 Z m 85.01959,0 c -1.999,0 -3.5865,0.4705439 -4.7625,1.4112834 -1.0583,0.8231471 -1.7644,1.8228589 -2.1172,2.9987834 l -13.1304,41.563871 h 32.5954 l 12.9909,-39.8001544 c 0.3528,-1.0583318 0.5292,-1.8225135 0.5292,-2.2928833 0,-1.0583318 -0.4114,-1.9402787 -1.2345,-2.6458333 -0.7056,-0.8231471 -1.5875,-1.2350668 -2.6459,-1.2350668 z m 47.0953,0 c -1.2934,0 -2.4104,0.4705439 -3.3512,1.4112834 -0.9407,0.9407396 -1.4113,2.0576998 -1.4113,3.3512166 V 49.472949 h 32.6322 V 8.2615112 c 0,-1.2935168 -0.4706,-2.410477 -1.4113,-3.3512166 -0.9408,-0.9407395 -2.0577,-1.4112834 -3.3512,-1.4112834 z m 57.3268,0 c -1.2936,0 -2.4105,0.4705439 -3.3512,1.4112834 -0.9408,0.9407396 -1.4113,2.0576998 -1.4113,3.3512166 V 49.472949 h 32.6321 V 30.839461 h 19.9316 c 11.4065,0 17.1101,4.351111 17.1101,13.05295 0,2.122052 -0.3516,3.976006 -1.0299,5.580538 h 33.3793 c 0.1795,-1.795477 0.2822,-3.649282 0.2822,-5.580538 0,-13.405537 -4.3506,-23.45973 -13.0525,-30.1625 -8.7018,-6.8203609 -20.9318,-10.2308998 -36.6892,-10.2308998 z M 142.50706,79.643717 v 42.565363 c 0,1.29352 0.47055,2.41049 1.41129,3.35121 0.94074,0.94074 2.05771,1.41129 3.35121,1.41129 h 83.60834 c 1.29352,0 2.41099,-0.47055 3.35173,-1.41129 0.94074,-0.94072 1.41077,-2.05769 1.41077,-3.35121 v -18.69757 c 0,-1.29351 -0.47003,-2.41047 -1.41077,-3.35122 -0.94074,-0.940728 -2.05821,-1.411279 -3.35173,-1.411279 H 175.13918 V 79.643717 Z m 113.4184,0 v 42.565363 c 0,1.29352 0.47002,2.41049 1.41077,3.35121 0.94074,0.94074 2.05823,1.41129 3.35173,1.41129 h 23.1066 c 1.29352,0 2.411,-0.47055 3.35174,-1.41129 0.94074,-0.94072 1.41076,-2.05769 1.41076,-3.35121 V 79.643717 Z m 44.05106,0 28.97394,43.270743 c 0.47038,0.94074 1.35232,1.88131 2.64584,2.82205 1.29352,0.82315 2.82189,1.23507 4.58576,1.23507 h 18.34462 c 1.29352,0 2.41048,-0.47055 3.35122,-1.41129 0.94074,-0.94072 1.41128,-2.05769 1.41128,-3.35121 V 79.643717 Z m 108.87811,0 v 42.565363 c 0,1.29352 0.47054,2.41049 1.41128,3.35121 0.94074,0.94074 2.0577,1.41129 3.35122,1.41129 h 23.10712 c 1.29352,0 2.41047,-0.47055 3.35121,-1.41129 0.94074,-0.94072 1.41129,-2.05769 1.41129,-3.35121 V 79.643717 Z m 80.22766,0 c 0.0179,0.511616 0.01,0.762498 0.0295,1.290361 0.47036,8.937025 2.88119,17.050943 7.23211,24.341662 4.46852,7.17315 10.7594,12.87623 18.87327,17.10955 8.11388,4.23333 17.75667,6.35 28.92795,6.35 11.17128,0 20.81408,-2.11667 28.92795,-6.35 8.11388,-4.23332 14.34613,-9.9364 18.69705,-17.10955 4.46852,-7.290719 6.93796,-15.404637 7.40833,-24.341662 0.0242,-0.327118 0.033,-0.920795 0.0548,-1.290361 h -32.66364 c -0.0101,0.126143 -0.0129,0.283431 -0.0233,0.408244 -0.58796,6.232399 -2.76326,11.229925 -6.52622,14.992884 -3.64537,3.645364 -8.93705,5.468395 -15.875,5.468395 -6.93795,0 -12.28825,-1.823031 -16.05122,-5.468395 -3.64536,-3.762959 -5.76203,-8.760485 -6.35,-14.992884 -0.0104,-0.124813 -0.0132,-0.282101 -0.0233,-0.408244 z m 215.22407,0 v 42.565363 c 0,1.29352 0.47055,2.41049 1.41129,3.35121 0.94074,0.94074 2.05771,1.41129 3.35121,1.41129 h 83.60834 c 1.29352,0 2.41047,-0.47055 3.35121,-1.41129 0.94075,-0.94072 1.41129,-2.05769 1.41129,-3.35121 v -18.69757 c 0,-1.29351 -0.47054,-2.41047 -1.41129,-3.35122 -0.94074,-0.940728 -2.05769,-1.411279 -3.35121,-1.411279 H 736.93848 V 79.643717 Z m 113.41789,0 v 42.565363 c 0,1.29352 0.47054,2.41049 1.41128,3.35121 0.94074,0.94074 2.0577,1.41129 3.35122,1.41129 h 23.10711 c 1.29352,0 2.41048,-0.47055 3.35122,-1.41129 0.94075,-0.94072 1.41128,-2.05769 1.41128,-3.35121 V 79.643717 Z m 44.05157,0 28.97394,43.270743 c 0.47038,0.94074 1.35233,1.88131 2.64584,2.82205 1.29352,0.82315 2.82188,1.23507 4.58576,1.23507 h 18.34462 c 1.29351,0 2.41047,-0.47055 3.35122,-1.41129 0.94074,-0.94072 1.41128,-2.05769 1.41128,-3.35121 V 79.643717 Z m 98.90818,0 13.14493,40.271963 c 1.6463,4.70369 4.76216,7.0559 9.34827,7.0559 h 23.2833 c 4.5862,0 7.7025,-2.35221 9.3488,-7.0559 l 13.1449,-40.271963 z m 107.8652,0 v 42.565363 c 0,1.29352 0.4706,2.41049 1.4113,3.35121 0.9408,0.94074 2.0578,1.41129 3.3512,1.41129 h 23.1072 c 1.2935,0 2.4104,-0.47055 3.3512,-1.41129 0.9407,-0.94072 1.4113,-2.05769 1.4113,-3.35121 V 79.643717 Z m 57.3268,0 v 42.565363 c 0,1.29352 0.4705,2.41049 1.4113,3.35121 0.9407,0.94074 2.0576,1.41129 3.3512,1.41129 h 23.1071 c 1.2935,0 2.4105,-0.47055 3.3512,-1.41129 0.9407,-0.94072 1.4113,-2.05769 1.4113,-3.35121 V 84.461511 h 16.2274 l 19.5792,37.747569 c 0.7055,1.41111 1.5875,2.58669 2.6458,3.52743 1.0584,0.82315 2.6459,1.23507 4.7625,1.23507 h 23.9893 c 1.0583,0 1.9402,-0.35278 2.6458,-1.05834 0.8231,-0.82313 1.2345,-1.76422 1.2345,-2.82256 0,-0.58796 -0.1763,-1.23438 -0.5291,-1.93994 l -21.6251,-41.507023 z m 118.5039,0 c 0.018,0.511616 0.01,0.762498 0.029,1.290361 0.4703,8.937025 2.8812,17.050943 7.2321,24.341662 4.4686,7.17315 10.7594,12.87623 18.8733,17.10955 8.1139,4.23333 17.7568,6.35 28.9279,6.35 11.1714,0 20.8141,-2.11667 28.928,-6.35 8.1139,-4.23332 14.3462,-9.9364 18.697,-17.10955 4.4685,-7.290719 6.938,-15.404637 7.4084,-24.341662 0.024,-0.327118 0.033,-0.920795 0.055,-1.290361 h -32.6637 c -0.01,0.126142 -0.013,0.283431 -0.023,0.408244 -0.588,6.232399 -2.7633,11.229925 -6.5263,14.992884 -3.6452,3.645364 -8.937,5.468395 -15.875,5.468395 -6.9378,0 -12.2882,-1.823031 -16.0512,-5.468395 -3.6453,-3.762959 -5.762,-8.760485 -6.35,-14.992884 -0.01,-0.124813 -0.013,-0.282101 -0.023,-0.408244 z"
         sodipodi:nodetypes="sscccssccccsssscccssccccssssscccssssssssssccccsssssccssssssssssccccsssssssssscccssssssssssccccsssssccssssssscccccssscccccscsssssccssssssscccssccscsscsssssssssccccsssssscccccsssscccsssssscccccssscccccsscccccsssssssssccccsssssscccccssssccccssccccsssssscccssssssccccssssccccccssscccccsscccc" /><g
         id="g5393"
         style="fill:#f6c355;fill-opacity:1"><rect
           style="font-weight:bold;font-size:176.389px;font-family:'Reem Kufi';-inkscape-font-specification:'Reem Kufi Bold';writing-mode:vertical-lr;fill:#f6c355;fill-opacity:1;stroke-width:0.0700041;stroke-linecap:square;stroke-linejoin:bevel;paint-order:fill markers stroke;stop-color:#000000"
           id="rect688"
           width="37.041668"
           height="37.041668"
           x="0"
           y="0"
           rx="10"
           ry="10" /><rect
           style="font-weight:bold;font-size:176.389px;font-family:'Reem Kufi';-inkscape-font-specification:'Reem Kufi Bold';writing-mode:vertical-lr;fill:#f6c355;fill-opacity:1;stroke-width:0.0700041;stroke-linecap:square;stroke-linejoin:bevel;paint-order:fill markers stroke;stop-color:#000000"
           id="rect690"
           width="37.041668"
           height="37.041668"
           x="0"
           y="47.625"
           rx="10"
           ry="10" /><rect
           style="font-weight:bold;font-size:176.389px;font-family:'Reem Kufi';-inkscape-font-specification:'Reem Kufi Bold';writing-mode:vertical-lr;fill:#f6c355;fill-opacity:1;stroke-width:0.0700041;stroke-linecap:square;stroke-linejoin:bevel;paint-order:fill markers stroke;stop-color:#000000"
           id="rect692"
           width="37.041668"
           height="37.041668"
           x="-1.1412731e-17"
           y="95.25"
           rx="10"
           ry="10" /></g><g
         id="g5388"
         style="fill:#f6c355;fill-opacity:1"><rect
           style="font-weight:bold;font-size:176.389px;font-family:'Reem Kufi';-inkscape-font-specification:'Reem Kufi Bold';writing-mode:vertical-lr;fill:#f6c355;fill-opacity:1;stroke-width:0.0700041;stroke-linecap:square;stroke-linejoin:bevel;paint-order:fill markers stroke;stop-color:#000000"
           id="rect688-7"
           width="37.041668"
           height="55.562504"
           x="95.25"
           y="0"
           rx="10"
           ry="10" /><rect
           style="font-weight:bold;font-size:176.389px;font-family:'Reem Kufi';-inkscape-font-specification:'Reem Kufi Bold';writing-mode:vertical-lr;fill:#f6c355;fill-opacity:1;stroke-width:0.0700041;stroke-linecap:square;stroke-linejoin:bevel;paint-order:fill markers stroke;stop-color:#000000"
           id="rect692-2"
           width="37.041668"
           height="55.562504"
           x="95.25"
           y="76.729164"
           rx="10"
           ry="10" /></g><g
         id="g5400"
         style="fill:#f6c355;fill-opacity:1"><rect
           style="font-weight:bold;font-size:176.389px;font-family:'Reem Kufi';-inkscape-font-specification:'Reem Kufi Bold';writing-mode:vertical-lr;fill:#f6c355;fill-opacity:1;stroke-width:0.0700041;stroke-linecap:square;stroke-linejoin:bevel;paint-order:fill markers stroke;stop-color:#000000"
           id="rect688-6"
           width="42.333332"
           height="18.520834"
           x="44.979168"
           y="0"
           rx="5"
           ry="5" /><rect
           style="font-weight:bold;font-size:176.389px;font-family:'Reem Kufi';-inkscape-font-specification:'Reem Kufi Bold';writing-mode:vertical-lr;fill:#f6c355;fill-opacity:1;stroke-width:0.0700041;stroke-linecap:square;stroke-linejoin:bevel;paint-order:fill markers stroke;stop-color:#000000"
           id="rect688-6-6"
           width="42.333332"
           height="18.520834"
           x="44.979168"
           y="113.77084"
           rx="5"
           ry="5" /><g
           id="g881"
           transform="translate(-2.6458302,22.489582)"
           style="fill:#f6c355;fill-opacity:1"><circle
             style="font-weight:bold;font-size:176.389px;font-family:'Reem Kufi';-inkscape-font-specification:'Reem Kufi Bold';writing-mode:vertical-lr;fill:#f6c355;fill-opacity:1;stroke-width:0.0700041;stroke-linecap:square;stroke-linejoin:bevel;paint-order:fill markers stroke;stop-color:#000000"
             id="path768"
             cx="68.791664"
             cy="21.166668"
             r="18.520834" /><circle
             style="font-weight:bold;font-size:176.389px;font-family:'Reem Kufi';-inkscape-font-specification:'Reem Kufi Bold';writing-mode:vertical-lr;fill:#f6c355;fill-opacity:1;stroke-width:0.0700041;stroke-linecap:square;stroke-linejoin:bevel;paint-order:fill markers stroke;stop-color:#000000"
             id="path768-9"
             cx="68.791664"
             cy="66.145836"
             r="18.520834" /></g></g><path
         d="m 621.9327,78.905407 q -1.94028,0 -3.35139,-1.411112 -1.41111,-1.411112 -1.41111,-3.351391 v -17.81529 q 0,-1.940279 1.41111,-3.351391 1.41111,-1.411112 3.35139,-1.411112 h 55.56254 q 1.94028,0 3.35139,1.411112 1.41111,1.411112 1.41111,3.351391 v 17.81529 q 0,1.940279 -1.41111,3.351391 -1.41111,1.411112 -3.35139,1.411112 z"
         style="font-weight:bold;font-size:176.389px;font-family:Rubik;-inkscape-font-specification:'Rubik Bold';writing-mode:lr-tb;fill:#e23f3f;fill-opacity:1;stroke-width:0.264583;stroke-linecap:square;stroke-linejoin:bevel;paint-order:fill markers stroke;stop-color:#000000"
         id="path416" /><path
         d="m 185.38236,78.905407 c -1.29352,0 -2.41065,-0.470371 -3.35139,-1.411112 -0.94074,-0.940741 -1.41111,-2.057872 -1.41111,-3.351391 v -17.81529 c 0,-1.293519 0.47037,-2.41065 1.41111,-3.351391 0.94074,-0.940741 2.05787,-1.411112 3.35139,-1.411112 h 39.68754 c 1.29352,0 2.41065,0.470371 3.35139,1.411112 0.94074,0.940741 1.41111,2.057872 1.41111,3.351391 v 17.81529 c 0,1.293519 -0.47037,2.41065 -1.41111,3.351391 -0.94074,0.940741 -2.05787,1.411112 -3.35139,1.411112 z"
         style="font-weight:bold;font-size:176.389px;font-family:Rubik;-inkscape-font-specification:'Rubik Bold';writing-mode:lr-tb;fill:#4b5563;fill-opacity:1;stroke-width:0.264583;stroke-linecap:square;stroke-linejoin:bevel;paint-order:fill markers stroke;stop-color:#000000"
         id="path416-0"
         sodipodi:nodetypes="sssssssssssss" /><path
         d="m 748.11966,78.905407 c -1.29352,0 -2.41065,-0.470371 -3.35139,-1.411112 -0.94074,-0.940741 -1.41111,-2.057872 -1.41111,-3.351391 v -17.81529 c 0,-1.293519 0.47037,-2.41065 1.41111,-3.351391 0.94074,-0.940741 2.05787,-1.411112 3.35139,-1.411112 h 39.68754 c 1.29352,0 2.41065,0.470371 3.35139,1.411112 0.94074,0.940741 1.41111,2.057872 1.41111,3.351391 v 17.81529 c 0,1.293519 -0.47037,2.41065 -1.41111,3.351391 -0.94074,0.940741 -2.05787,1.411112 -3.35139,1.411112 z"
         style="font-weight:bold;font-size:176.389px;font-family:Rubik;-inkscape-font-specification:'Rubik Bold';writing-mode:lr-tb;fill:#4b5563;fill-opacity:1;stroke-width:0.264583;stroke-linecap:square;stroke-linejoin:bevel;paint-order:fill markers stroke;stop-color:#000000"
         id="path416-0-2"
         sodipodi:nodetypes="sssssssssssss" /></g></g></svg>
