<?xml version="1.0" encoding="UTF-8" standalone="no"?>
<!-- Created with Inkscape (http://www.inkscape.org/) -->

<svg
   width="500"
   height="500"
   viewBox="0 0 132.29166 132.29167"
   version="1.1"
   id="svg5"
   inkscape:version="1.2.2 (732a01da63, 2022-12-09)"
   sodipodi:docname="logo.svg"
   xml:space="preserve"
   xmlns:inkscape="http://www.inkscape.org/namespaces/inkscape"
   xmlns:sodipodi="http://sodipodi.sourceforge.net/DTD/sodipodi-0.dtd"
   xmlns="http://www.w3.org/2000/svg"
   xmlns:svg="http://www.w3.org/2000/svg"><sodipodi:namedview
     id="namedview7"
     pagecolor="#505050"
     bordercolor="#eeeeee"
     borderopacity="1"
     inkscape:showpageshadow="0"
     inkscape:pageopacity="0"
     inkscape:pagecheckerboard="0"
     inkscape:deskcolor="#505050"
     inkscape:document-units="mm"
     showgrid="false"
     inkscape:zoom="1.0419012"
     inkscape:cx="263.46068"
     inkscape:cy="264.90036"
     inkscape:window-width="1920"
     inkscape:window-height="1009"
     inkscape:window-x="-8"
     inkscape:window-y="-8"
     inkscape:window-maximized="1"
     inkscape:current-layer="g881" /><defs
     id="defs2" /><g
     inkscape:label="Calque 1"
     inkscape:groupmode="layer"
     id="layer1"><g
       aria-label="BENTO-ENVIRO"
       id="text300"
       style="font-weight:bold;font-size:176.389px;font-family:'Reem Kufi';-inkscape-font-specification:'Reem Kufi Bold';writing-mode:vertical-lr;fill:#f2f2f2;stroke-width:0.264583;stroke-linecap:square;stroke-linejoin:bevel;paint-order:fill markers stroke;stop-color:#000000"><path
         d="m 175.13912,78.993603 h 50.44726 q 1.94028,0 3.35139,-1.411112 1.41111,-1.411113 1.41111,-3.351392 V 55.533865 q 0,-1.940279 -1.41111,-3.351392 -1.41111,-1.411112 -3.35139,-1.411112 H 175.13912 V 31.721349 h 54.32782 q 1.94028,0 3.35139,-1.411112 1.41111,-1.411113 1.41111,-3.351392 V 8.2616106 q 0,-1.9402791 -1.41111,-3.3513912 -1.41111,-1.411112 -3.35139,-1.411112 h -82.19728 q -1.94028,0 -3.35139,1.411112 -1.41111,1.4111121 -1.41111,3.3513912 V 122.20891 q 0,1.94028 1.41111,3.35139 1.41111,1.41111 3.35139,1.41111 h 83.60839 q 1.94028,0 3.35139,-1.41111 1.41111,-1.41111 1.41111,-3.35139 v -18.69724 q 0,-1.94027 -1.41111,-3.35139 -1.41111,-1.411109 -3.35139,-1.411109 h -55.73893 z"
         style="font-family:Rubik;-inkscape-font-specification:'Rubik Bold';writing-mode:lr-tb"
         id="path408" /><path
         d="m 336.18222,126.97141 q -2.64583,0 -4.58611,-1.23472 -1.94028,-1.41111 -2.64584,-2.82222 L 288.55719,62.589425 v 59.619485 q 0,1.94028 -1.41111,3.35139 -1.41111,1.41111 -3.35139,1.41111 h -23.10696 q -1.94028,0 -3.35139,-1.41111 -1.41112,-1.41111 -1.41112,-3.35139 V 8.2616106 q 0,-1.9402791 1.41112,-3.3513912 1.41111,-1.411112 3.35139,-1.411112 h 18.34445 q 2.64584,0 4.58612,1.411112 1.94028,1.2347231 2.64583,2.6458351 L 326.65722,67.881095 V 8.2616106 q 0,-1.9402791 1.41111,-3.3513912 1.41111,-1.411112 3.35139,-1.411112 h 23.10696 q 1.94028,0 3.35139,1.411112 1.41111,1.4111121 1.41111,3.3513912 V 122.20891 q 0,1.94028 -1.41111,3.35139 -1.41111,1.41111 -3.35139,1.41111 z"
         style="font-family:Rubik;-inkscape-font-specification:'Rubik Bold';writing-mode:lr-tb"
         id="path410" /><path
         d="m 472.53107,3.4991074 q 1.94028,0 3.35139,1.411112 1.41111,1.4111121 1.41111,3.3513912 V 26.958845 q 0,1.940279 -1.41111,3.351392 -1.41111,1.411112 -3.35139,1.411112 H 441.4866 v 90.487561 q 0,1.94028 -1.41111,3.35139 -1.41111,1.41111 -3.35139,1.41111 h -23.10696 q -1.94028,0 -3.35139,-1.41111 -1.41111,-1.41111 -1.41111,-3.35139 V 31.721349 h -31.04447 q -1.94028,0 -3.35139,-1.411112 -1.41111,-1.411113 -1.41111,-3.351392 V 8.2616106 q 0,-1.9402791 1.41111,-3.3513912 1.41111,-1.411112 3.35139,-1.411112 z"
         style="font-family:Rubik;-inkscape-font-specification:'Rubik Bold';writing-mode:lr-tb"
         id="path412" /><path
         d="m 544.14509,1.7352173 q 16.75695,0 28.92779,6.3500043 12.17085,6.3500044 18.69724,17.2861224 6.70278,10.75973 7.40834,24.165294 0.35278,4.938893 0.35278,15.875011 0,10.759729 -0.35278,15.522233 -0.70556,13.405564 -7.40834,24.341678 -6.52639,10.75973 -18.69724,17.10974 -12.17084,6.35 -28.92779,6.35 -16.75696,0 -28.9278,-6.35 -12.17084,-6.35001 -18.87362,-17.10974 -6.5264,-10.936114 -7.23195,-24.341678 -0.35278,-9.525007 -0.35278,-15.522233 0,-5.997226 0.35278,-15.875011 0.70555,-13.405564 7.23195,-24.165294 6.70278,-10.936118 18.87362,-17.2861224 12.17084,-6.3500043 28.9278,-6.3500043 z m 22.4014,48.6833657 q -0.88194,-9.348617 -6.52639,-14.816676 -5.46806,-5.644449 -15.87501,-5.644449 -10.40695,0 -16.0514,5.644449 -5.46806,5.468059 -6.35001,14.816676 -0.52916,5.820838 -0.52916,14.640288 0,8.643061 0.52916,14.993066 0.88195,9.348617 6.35001,14.993065 5.64445,5.468058 16.0514,5.468058 10.40695,0 15.87501,-5.468058 5.64445,-5.644448 6.52639,-14.993065 0.52917,-6.350005 0.52917,-14.993066 0,-8.81945 -0.52917,-14.640288 z"
         style="font-family:Rubik;-inkscape-font-specification:'Rubik Bold';writing-mode:lr-tb"
         id="path414" /><path
         d="m 621.9327,87.636664 q -1.94028,0 -3.35139,-1.411112 -1.41111,-1.411112 -1.41111,-3.351391 v -17.81529 q 0,-1.940279 1.41111,-3.351391 1.41111,-1.411112 3.35139,-1.411112 h 55.56254 q 1.94028,0 3.35139,1.411112 1.41111,1.411112 1.41111,3.351391 v 17.81529 q 0,1.940279 -1.41111,3.351391 -1.41111,1.411112 -3.35139,1.411112 z"
         style="font-family:Rubik;-inkscape-font-specification:'Rubik Bold';writing-mode:lr-tb"
         id="path416" /><path
         d="m 736.93836,78.993603 h 50.44725 q 1.94028,0 3.35139,-1.411112 1.41112,-1.411113 1.41112,-3.351392 V 55.533865 q 0,-1.940279 -1.41112,-3.351392 -1.41111,-1.411112 -3.35139,-1.411112 H 736.93836 V 31.721349 h 54.32781 q 1.94028,0 3.35139,-1.411112 1.41111,-1.411113 1.41111,-3.351392 V 8.2616106 q 0,-1.9402791 -1.41111,-3.3513912 -1.41111,-1.411112 -3.35139,-1.411112 h -82.19728 q -1.94028,0 -3.35139,1.411112 -1.41111,1.4111121 -1.41111,3.3513912 V 122.20891 q 0,1.94028 1.41111,3.35139 1.41111,1.41111 3.35139,1.41111 h 83.60839 q 1.94028,0 3.35139,-1.41111 1.41112,-1.41111 1.41112,-3.35139 v -18.69724 q 0,-1.94027 -1.41112,-3.35139 -1.41111,-1.411109 -3.35139,-1.411109 h -55.73892 z"
         style="font-family:Rubik;-inkscape-font-specification:'Rubik Bold';writing-mode:lr-tb"
         id="path418" /><path
         d="m 897.98148,126.97141 q -2.64584,0 -4.58612,-1.23472 -1.94027,-1.41111 -2.64583,-2.82222 L 850.35645,62.589425 v 59.619485 q 0,1.94028 -1.41112,3.35139 -1.41111,1.41111 -3.35139,1.41111 h -23.10696 q -1.94028,0 -3.35139,-1.41111 -1.41111,-1.41111 -1.41111,-3.35139 V 8.2616106 q 0,-1.9402791 1.41111,-3.3513912 1.41111,-1.411112 3.35139,-1.411112 h 18.34446 q 2.64584,0 4.58611,1.411112 1.94028,1.2347231 2.64584,2.6458351 L 888.45647,67.881095 V 8.2616106 q 0,-1.9402791 1.41111,-3.3513912 1.41112,-1.411112 3.3514,-1.411112 h 23.10696 q 1.94027,0 3.35139,1.411112 1.41111,1.4111121 1.41111,3.3513912 V 122.20891 q 0,1.94028 -1.41111,3.35139 -1.41112,1.41111 -3.35139,1.41111 z"
         style="font-family:Rubik;-inkscape-font-specification:'Rubik Bold';writing-mode:lr-tb"
         id="path420" /><path
         d="m 983.1773,126.97141 q -6.87917,0 -9.34862,-7.05556 L 937.84532,9.6727226 q -0.52916,-1.587501 -0.52916,-2.2930571 0,-1.587501 1.05833,-2.6458351 1.23472,-1.234723 2.82223,-1.234723 h 22.22501 q 2.99861,0 4.58611,1.411112 1.76389,1.2347231 2.29306,2.9986132 L 994.81897,85.519996 1019.337,7.9088326 q 0.5292,-1.7638901 2.1167,-2.9986132 1.7639,-1.411112 4.7625,-1.411112 h 22.225 q 1.5875,0 2.6459,1.234723 1.2347,1.0583341 1.2347,2.6458351 0,0.7055561 -0.5292,2.2930571 L 1015.8093,119.91585 q -2.4695,7.05556 -9.3487,7.05556 z"
         style="font-family:Rubik;-inkscape-font-specification:'Rubik Bold';writing-mode:lr-tb"
         id="path422" /><path
         d="m 1073.3119,126.97141 q -1.9402,0 -3.3514,-1.41111 -1.4111,-1.41111 -1.4111,-3.35139 V 8.2616106 q 0,-1.9402791 1.4111,-3.3513912 1.4112,-1.411112 3.3514,-1.411112 h 23.107 q 1.9403,0 3.3514,1.411112 1.4111,1.4111121 1.4111,3.3513912 V 122.20891 q 0,1.94028 -1.4111,3.35139 -1.4111,1.41111 -3.3514,1.41111 z"
         style="font-family:Rubik;-inkscape-font-specification:'Rubik Bold';writing-mode:lr-tb"
         id="path424" /><path
         d="m 1178.4399,3.4991074 q 23.6361,0 36.6889,10.2305626 13.0528,10.054173 13.0528,30.16252 0,25.576406 -20.9903,35.277802 l 21.8722,41.980588 q 0.5292,1.05833 0.5292,1.94027 0,1.58751 -1.2347,2.82223 -1.0584,1.05833 -2.6459,1.05833 h -23.9889 q -3.175,0 -4.7625,-1.23472 -1.5875,-1.41111 -2.6458,-3.52778 l -19.5792,-37.747248 h -16.2278 v 37.747248 q 0,1.94028 -1.4111,3.35139 -1.4111,1.41111 -3.3514,1.41111 h -23.1069 q -1.9403,0 -3.3514,-1.41111 -1.4111,-1.41111 -1.4111,-3.35139 V 8.2616106 q 0,-1.9402791 1.4111,-3.3513912 1.4111,-1.411112 3.3514,-1.411112 z m 0,53.4458696 q 17.1097,0 17.1097,-13.052787 0,-13.052786 -17.1097,-13.052786 h -19.932 v 26.105573 z"
         style="font-family:Rubik;-inkscape-font-specification:'Rubik Bold';writing-mode:lr-tb"
         id="path426" /><path
         d="m 1299.4427,1.7352173 q 16.757,0 28.9278,6.3500043 12.1709,6.3500044 18.6973,17.2861224 6.7027,10.75973 7.4083,24.165294 0.3528,4.938893 0.3528,15.875011 0,10.759729 -0.3528,15.522233 -0.7056,13.405564 -7.4083,24.341678 -6.5264,10.75973 -18.6973,17.10974 -12.1708,6.35 -28.9278,6.35 -16.7569,0 -28.9278,-6.35 -12.1708,-6.35001 -18.8736,-17.10974 -6.5264,-10.936114 -7.2319,-24.341678 -0.3528,-9.525007 -0.3528,-15.522233 0,-5.997226 0.3528,-15.875011 0.7055,-13.405564 7.2319,-24.165294 6.7028,-10.936118 18.8736,-17.2861224 12.1709,-6.3500043 28.9278,-6.3500043 z m 22.4014,48.6833657 q -0.8819,-9.348617 -6.5264,-14.816676 -5.468,-5.644449 -15.875,-5.644449 -10.4069,0 -16.0514,5.644449 -5.468,5.468059 -6.35,14.816676 -0.5291,5.820838 -0.5291,14.640288 0,8.643061 0.5291,14.993066 0.882,9.348617 6.35,14.993065 5.6445,5.468058 16.0514,5.468058 10.407,0 15.875,-5.468058 5.6445,-5.644448 6.5264,-14.993065 0.5292,-6.350005 0.5292,-14.993066 0,-8.81945 -0.5292,-14.640288 z"
         style="font-family:Rubik;-inkscape-font-specification:'Rubik Bold';writing-mode:lr-tb"
         id="path428" /><rect
         style="font-weight:bold;font-size:176.389px;font-family:'Reem Kufi';-inkscape-font-specification:'Reem Kufi Bold';writing-mode:vertical-lr;fill:#000000;fill-opacity:1;stroke-width:0.0700041;stroke-linecap:square;stroke-linejoin:bevel;paint-order:fill markers stroke;stop-color:#000000"
         id="rect688"
         width="37.041668"
         height="37.041668"
         x="0"
         y="0" /><rect
         style="font-weight:bold;font-size:176.389px;font-family:'Reem Kufi';-inkscape-font-specification:'Reem Kufi Bold';writing-mode:vertical-lr;fill:#000000;stroke-width:0.0700041;stroke-linecap:square;stroke-linejoin:bevel;paint-order:fill markers stroke;stop-color:#000000;fill-opacity:1"
         id="rect688-6"
         width="42.333332"
         height="18.520834"
         x="44.979168"
         y="0" /><rect
         style="font-weight:bold;font-size:176.389px;font-family:'Reem Kufi';-inkscape-font-specification:'Reem Kufi Bold';writing-mode:vertical-lr;fill:#000000;stroke-width:0.0700041;stroke-linecap:square;stroke-linejoin:bevel;paint-order:fill markers stroke;stop-color:#000000"
         id="rect688-6-6"
         width="42.333332"
         height="18.520834"
         x="44.979168"
         y="113.77084" /><rect
         style="font-weight:bold;font-size:176.389px;font-family:'Reem Kufi';-inkscape-font-specification:'Reem Kufi Bold';writing-mode:vertical-lr;fill:#000000;stroke-width:0.0700041;stroke-linecap:square;stroke-linejoin:bevel;paint-order:fill markers stroke;stop-color:#000000"
         id="rect690"
         width="37.041668"
         height="37.041668"
         x="0"
         y="50.270832" /><rect
         style="font-weight:bold;font-size:176.389px;font-family:'Reem Kufi';-inkscape-font-specification:'Reem Kufi Bold';writing-mode:vertical-lr;fill:#000000;stroke-width:0.0700041;stroke-linecap:square;stroke-linejoin:bevel;paint-order:fill markers stroke;stop-color:#000000"
         id="rect692"
         width="37.041668"
         height="37.041668"
         x="-1.1412731e-17"
         y="95.25" /><rect
         style="font-weight:bold;font-size:176.389px;font-family:'Reem Kufi';-inkscape-font-specification:'Reem Kufi Bold';writing-mode:vertical-lr;fill:#000000;fill-opacity:1;stroke-width:0.0700041;stroke-linecap:square;stroke-linejoin:bevel;paint-order:fill markers stroke;stop-color:#000000"
         id="rect688-7"
         width="37.041668"
         height="55.562504"
         x="95.25"
         y="0" /><rect
         style="font-weight:bold;font-size:176.389px;font-family:'Reem Kufi';-inkscape-font-specification:'Reem Kufi Bold';writing-mode:vertical-lr;fill:#000000;stroke-width:0.0700041;stroke-linecap:square;stroke-linejoin:bevel;paint-order:fill markers stroke;stop-color:#000000"
         id="rect692-2"
         width="37.041668"
         height="55.562504"
         x="95.25"
         y="76.729164" /><g
         id="g881"
         transform="translate(-2.6458314,22.489583)"
         style="fill:#000000"><circle
           style="font-weight:bold;font-size:176.389px;font-family:'Reem Kufi';-inkscape-font-specification:'Reem Kufi Bold';writing-mode:vertical-lr;fill:#000000;fill-opacity:1;stroke-width:0.0700041;stroke-linecap:square;stroke-linejoin:bevel;paint-order:fill markers stroke;stop-color:#000000"
           id="path768"
           cx="68.791664"
           cy="21.166668"
           r="18.520834" /><circle
           style="font-weight:bold;font-size:176.389px;font-family:'Reem Kufi';-inkscape-font-specification:'Reem Kufi Bold';writing-mode:vertical-lr;fill:#000000;fill-opacity:1;stroke-width:0.0700041;stroke-linecap:square;stroke-linejoin:bevel;paint-order:fill markers stroke;stop-color:#000000"
           id="path768-9"
           cx="68.791664"
           cy="66.145836"
           r="18.520834" /></g></g></g></svg>
